<svg xmlns="http://www.w3.org/2000/svg" xmlns:xlink="http://www.w3.org/1999/xlink" aria-hidden="true" role="img" class="iconify iconify--logos" width="31.88" height="32" preserveAspectRatio="xMidYMid meet" viewBox="0 0 256 257"><defs><linearGradient id="IconifyId1813088fe1fbc01fb466" x1="-.828%" x2="57.636%" y1="7.652%" y2="78.411%"><stop offset="0%" stop-color="#41D1FF"></stop><stop offset="100%" stop-color="#BD34FE"></stop></linearGradient><linearGradient id="IconifyId1813088fe1fbc01fb467" x1="43.376%" x2="50.316%" y1="2.242%" y2="89.03%"><stop offset="0%" stop-color="#FFEA83"></stop><stop offset="8.333%" stop-color="#FFDD35"></stop><stop offset="100%" stop-color="#FFA800"></stop></linearGradient></defs><path fill="url(#IconifyId1813088fe1fbc01fb466)" d="M255.153 37.938L134.897 252.976c-2.483 4.44-8.862 4.466-11.382.048L.875 37.958c-2.746-4.814 1.371-10.646 6.827-9.67l120.385 21.517a6.537 6.537 0 0 0 2.322-.004l117.867-21.483c5.438-.991 9.574 4.796 6.877 9.62Z"></path><path fill="url(#IconifyId1813088fe1fbc01fb467)" d="M185.432.063L96.44 17.501a3.268 3.268 0 0 0-2.634 3.014l-5.474 92.456a3.268 3.268 0 0 0 3.997 3.378l24.777-5.718c2.318-.535 4.413 1.507 3.936 3.838l-7.361 36.047c-.495 2.426 1.782 4.5 4.151 3.78l15.304-4.649c2.372-.72 4.652 1.36 4.15 3.788l-11.698 56.621c-.732 3.542 3.979 5.473 5.943 2.437l1.313-2.028l72.516-144.72c1.215-2.423-.88-5.186-3.54-4.672l-25.505 4.922c-2.396.462-4.435-1.77-3.759-4.114l16.646-57.705c.677-2.35-1.37-4.583-3.769-4.113Z"></path><symbol id="icon-x" viewBox="0 0 32 32">
<defs>
<path fill="none" stroke="#fbfbfb" style="stroke: var(--color1, #fbfbfb)" stroke-linejoin="round" stroke-linecap="round" stroke-miterlimit="4" stroke-width="3.2" d="M24 8l-16 16"></path>
<path fill="none" stroke="#fbfbfb" style="stroke: var(--color1, #fbfbfb)" stroke-linejoin="round" stroke-linecap="round" stroke-miterlimit="4" stroke-width="3.2" d="M8 8l16 16"></path>
</symbol>
<symbol id="icon-x-mini" viewBox="0 0 32 32">
<path fill="none" stroke="#fbfbfb" style="stroke: var(--color1, #fbfbfb)" stroke-linejoin="round" stroke-linecap="round" stroke-miterlimit="4" stroke-width="3" d="M24 8l-16 16"></path>
<path fill="none" stroke="#fbfbfb" style="stroke: var(--color1, #fbfbfb)" stroke-linejoin="round" stroke-linecap="round" stroke-miterlimit="4" stroke-width="3" d="M8 8l16 16"></path>
</symbol>
<symbol id="icon-VectorMax" viewBox="0 0 43 32">
<path fill="none" stroke="#fbfbfb" style="stroke: var(--color1, #fbfbfb)" stroke-linejoin="round" stroke-linecap="round" stroke-miterlimit="4" stroke-width="5.3333" d="M3.555 2.667h35.556M3.555 16h17.778M3.555 29.333h35.556"></path>
</symbol>
<symbol id="icon-Vector-mini" viewBox="0 0 42 32">
<path fill="none" stroke="#fbfbfb" style="stroke: var(--color1, #fbfbfb)" stroke-linejoin="round" stroke-linecap="round" stroke-miterlimit="4" stroke-width="4.8" d="M3.734 3.2h34.133M3.734 16h17.067M3.734 28.8h34.133"></path>
</symbol>
<symbol id="icon-icon3" viewBox="0 0 24 32">
<path fill="#fbfbfb" style="fill: var(--color1, #fbfbfb)" d="M12.266 30.391c-2.044 0-3.861-0.345-5.449-1.035-1.589-0.703-2.845-1.68-3.77-2.93-0.911-1.25-1.387-2.695-1.426-4.336h5.313c0.039 0.794 0.293 1.484 0.762 2.070 0.482 0.573 1.12 1.022 1.914 1.348 0.794 0.313 1.68 0.469 2.656 0.469 1.042 0 1.96-0.182 2.754-0.547 0.807-0.378 1.439-0.885 1.895-1.523 0.456-0.651 0.684-1.4 0.684-2.246 0-0.885-0.234-1.667-0.703-2.344-0.456-0.677-1.12-1.204-1.992-1.582s-1.921-0.566-3.145-0.566h-2.598v-4.063h2.598c0.99 0 1.868-0.176 2.637-0.527s1.367-0.84 1.797-1.465c0.43-0.638 0.645-1.38 0.645-2.227 0-0.82-0.189-1.536-0.566-2.148-0.365-0.612-0.885-1.087-1.563-1.426s-1.471-0.508-2.383-0.508c-0.885 0-1.712 0.163-2.48 0.488-0.755 0.313-1.367 0.762-1.836 1.348-0.456 0.586-0.697 1.289-0.723 2.109h-5.059c0.026-1.628 0.488-3.060 1.387-4.297 0.911-1.237 2.129-2.201 3.652-2.891 1.523-0.703 3.229-1.055 5.117-1.055 1.927 0 3.607 0.365 5.039 1.094 1.445 0.716 2.559 1.686 3.34 2.91 0.794 1.224 1.191 2.572 1.191 4.043 0 1.641-0.482 3.014-1.445 4.121s-2.233 1.836-3.809 2.188v0.215c2.031 0.286 3.587 1.042 4.668 2.266 1.094 1.224 1.641 2.747 1.641 4.57 0 1.628-0.462 3.086-1.387 4.375-0.924 1.276-2.194 2.279-3.808 3.008s-3.464 1.094-5.547 1.094z"></path>
</symbol>
<symbol id="icon-icn1" viewBox="0 0 15 32">
<path fill="#fbfbfb" style="fill: var(--color1, #fbfbfb)" d="M14.167 0.958v31.042h-5.583v-25.563h-0.188l-7.25 4.646v-5.167l7.708-4.958h5.313z"></path>
</symbol>
<symbol id="icon-icon2" viewBox="0 0 23 32">
<path fill="#fbfbfb" style="fill: var(--color1, #fbfbfb)" d="M1.938 32v-4.042l10.792-10.583c1.014-1.042 1.861-1.965 2.542-2.771 0.694-0.806 1.215-1.583 1.563-2.333 0.347-0.764 0.521-1.576 0.521-2.437 0-0.972-0.222-1.813-0.667-2.521s-1.056-1.25-1.833-1.625c-0.764-0.375-1.639-0.563-2.625-0.563-1.028 0-1.924 0.208-2.688 0.625s-1.361 1.007-1.792 1.771c-0.417 0.764-0.625 1.674-0.625 2.729h-5.333c0-1.958 0.444-3.66 1.333-5.104 0.903-1.458 2.146-2.59 3.729-3.396s3.396-1.208 5.438-1.208c2.097 0 3.931 0.389 5.5 1.167s2.792 1.847 3.667 3.208c0.875 1.347 1.312 2.889 1.312 4.625 0 1.167-0.222 2.313-0.667 3.437-0.444 1.111-1.229 2.354-2.354 3.729-1.111 1.361-2.674 3.007-4.688 4.938l-5.333 5.437v0.229h13.5v4.688h-21.292z"></path>
</symbol>
</defs>
</svg>