<svg xmlns="http://www.w3.org/2000/svg" aria-hidden="true" style="position:absolute;width:0;height:0;overflow:hidden">
  <defs>
    <symbol id="icon-GreenHarvest" viewBox="0 0 389 32">
      <path fill="#fbfbfb" d="M16.803 32C6.702 32 0 25.728 0 15.957 0 6.4 6.605 0 16.563 0c8.379 0 14.267 4.395 15.128 11.008h-6.944c-.667-3.797-3.875-5.931-8.187-5.931-6.032 0-9.621 4.352-9.621 10.88 0 7.168 4.021 10.965 9.861 10.965 5.075 0 8.331-2.56 8.667-6.4v-.427h-9.333v-4.779h15.797v3.925c-.288 7.637-6.32 12.757-15.131 12.757zm19.312-.427V.426h16.8c8.571 0 11.971 3.712 11.971 9.088 0 4.821-3.829 7.125-8.283 7.68v.128c2.872.64 4.165 2.048 5.36 4.821 1.533 3.499 1.773 7.68 3.736 9.173v.256H58.04c-1.627-1.451-2.011-6.016-2.872-8.789-.861-2.859-2.731-3.2-6.224-3.2h-6.128v11.989h-6.701zm6.701-16.938H52.2c3.925 0 5.744-2.048 5.744-4.693 0-2.901-2.251-4.565-5.744-4.565h-9.384v9.259zm26.52 16.938V.426h23.888v4.949H76.037v7.424h15.512v4.949H76.037v8.747h17.424v5.077H69.336zm28.781 0V.426h23.885v4.949h-17.184v7.424h15.509v4.949h-15.509v8.747h17.424v5.077H98.117zm28.779 0V.426h8.139l11.584 17.195c3.544 5.205 3.973 6.912 3.973 6.912h.144L150.64.426h6.701v31.147h-8.187l-12.011-17.707c-2.728-4.011-3.448-6.443-3.448-6.443h-.096v24.149h-6.701zm35.488 0v-6.315h6.987v6.315h-6.987zm12.021 0V.426h6.701v12.459h16.037V.426h6.701v31.147h-6.699V17.834h-16.037v13.739h-6.701zm32.307 0L220.115.426h7.277l13.595 31.147h-7.181l-2.824-7.168h-14.507l-2.821 7.168h-6.941zm11.68-12.117h10.675l-3.112-7.68c-2.155-5.675-2.203-6.699-2.203-6.699h-.096s0 1.024-2.152 6.699l-3.112 7.68zm25.448 12.117V.426h16.803c8.571 0 11.968 3.712 11.968 9.088 0 4.821-3.829 7.125-8.28 7.68v.128c2.872.64 4.163 2.048 5.36 4.821 1.533 3.499 1.771 7.68 3.733 9.173v.256h-7.659c-1.627-1.451-2.011-6.016-2.872-8.789-.861-2.859-2.728-3.2-6.224-3.2h-6.125v11.989h-6.704zm6.704-16.938h9.381c3.925 0 5.744-2.048 5.744-4.693 0-2.901-2.251-4.565-5.744-4.565h-9.381v9.259zm33.624 16.938L271.339.426h7.181s6.941 17.451 7.659 19.584c1.149 3.413 1.675 5.163 1.675 5.163h.096c-.048 0 .48-1.749 1.675-5.163.768-2.133 7.421-19.584 7.421-19.584h6.941l-12.352 31.147h-7.467zm22.563 0V.426h23.888v4.949h-17.187v7.424h15.512v4.949h-15.512v8.747h17.427v5.077h-24.128zm40.765.427c-8.904 0-14.267-4.309-14.267-10.709h7.661c-.096 3.627 2.584 5.632 6.605 5.632 4.261 0 6.269-1.493 6.269-3.712s-1.723-3.157-7.851-4.651c-5.6-1.365-11.728-2.987-11.728-9.387 0-5.077 4.979-9.173 12.829-9.173 8.091 0 13.261 4.053 13.261 9.771h-7.421c-.048-3.029-2.344-4.693-5.84-4.693-3.397 0-5.648 1.536-5.648 3.584 0 2.432 1.867 3.2 6.749 4.437 7.229 1.792 13.069 2.517 13.069 9.472 0 5.589-5.696 9.429-13.691 9.429zm24.603-.427V5.504H361.52V.427h27.813v5.077h-10.531v26.069h-6.704z" style="fill:var(--color1, #fbfbfb)"/>
    </symbol>
    <symbol id="icon-Vector" viewBox="0 0 32 32">
      <path fill="#fbfbfb" d="M29.082.314H25.052a2.22 2.22 0 0 0-2.22 2.195v3.929a2.22 2.22 0 0 0 2.22 2.196h4.05a2.22 2.22 0 0 0 2.22-2.195V2.51a2.22 2.22 0 0 0-2.22-2.196h-.021.001zM6.73 23.04H2.412C1.08 23.04 0 24.024 0 25.236v3.928c0 1.214 1.08 2.196 2.412 2.196h4.32c1.33 0 2.41-.982 2.41-2.196v-3.928c0-1.214-1.08-2.196-2.412-2.196zm-.48-11.46H2.24c-1.238 0-2.24.986-2.24 2.2v3.928a2.22 2.22 0 0 0 2.22 2.196h4.05a2.22 2.22 0 0 0 2.22-2.195V13.78c0-1.214-1.004-2.196-2.24-2.196zm11.516 11.4h-4.01c-1.236 0-2.24.98-2.24 2.194v3.928a2.22 2.22 0 0 0 2.22 2.196h4.05a2.22 2.22 0 0 0 2.22-2.195v-3.929a2.22 2.22 0 0 0-2.22-2.196h-.021.001zM6.25.086H2.24C1.002.086 0 1.07 0 2.282V6.21a2.22 2.22 0 0 0 2.22 2.196h4.05a2.22 2.22 0 0 0 2.22-2.195V2.282C8.49 1.07 7.486.086 6.25.086zm11.826 11.612h-4.01c-1.236 0-2.24.982-2.24 2.194v3.93a2.22 2.22 0 0 0 2.22 2.196h4.03c1.238 0 2.24-.984 2.24-2.196v-3.93c0-1.212-1.002-2.194-2.24-2.194zM29.334 22.98h-4.01c-1.238 0-2.24.98-2.24 2.194v3.928a2.22 2.22 0 0 0 2.22 2.196h4.05a2.22 2.22 0 0 0 2.22-2.195v-3.929c0-1.214-1.004-2.196-2.24-2.196zM17.59.224h-4.008c-1.238 0-2.24.982-2.24 2.196v3.928a2.22 2.22 0 0 0 2.22 2.196H17.61a2.22 2.22 0 0 0 2.22-2.195V2.42c0-1.214-1.002-2.196-2.24-2.196zm11.454 11.702h-4.01c-1.236 0-2.24.982-2.24 2.196v3.928a2.22 2.22 0 0 0 2.22 2.196h4.05a2.22 2.22 0 0 0 2.22-2.195v-3.929c0-1.214-1.004-2.196-2.24-2.196z" style="fill:var(--color1, #fbfbfb)"/>
    </symbol>
    <symbol id="icon-close" viewBox="0 0 32 32">
      <path fill="none" stroke="#fbfbfb" stroke-linecap="round" stroke-linejoin="round" stroke-width="5.333" d="m2.667 2.667 26.667 26.667" style="stroke:var(--color1, #fbfbfb)"/>
    </symbol>
    <symbol id="icon-menu" viewBox="0 0 43 32">
      <path fill="none" stroke="#fbfbfb" stroke-linecap="round" stroke-linejoin="round" stroke-width="5.333" d="M3.555 2.667h35.556M3.555 16h17.778M3.555 29.333h35.556" style="stroke:var(--color1, #fbfbfb)"/>
    </symbol>
  </defs>
</svg>
